<mxfile host="app.diagrams.net" modified="2023-11-05T17:16:46.113Z" agent="Mozilla/5.0 (Windows NT 10.0; Win64; x64) AppleWebKit/537.36 (KHTML, like Gecko) Chrome/119.0.0.0 Safari/537.36" version="22.0.8" etag="H1E0A05sShlyhIWjYY-X" type="github">
  <diagram name="Page-1" id="_b9BaYENlq5IXw5eroQ4">
    <mxGraphModel>
      <root>
        <mxCell id="0" />
        <mxCell id="1" parent="0" />
      </root>
    </mxGraphModel>
  </diagram>
</mxfile>
